<svg width="394" height="798" viewBox="0 0 394 798" fill="none" preserveAspectRatio="xMidYMid slice" xmlns="http://www.w3.org/2000/svg">
<path d="M1 788.5C367 679 263.077 531.332 1 468.774" stroke="#24789E" stroke-width="1"/>
<path d="M2.5 792.5C145.5 714 196 613.273 196 530.774C196 448.275 255 349 393.5 437.5" stroke="#24789E" stroke-width="1"/>
<path d="M393 474C225.5 474 40.5 353.274 40.5 281.274C40.5 209.274 148.968 143.774 174.5 113.774C200.032 83.7744 182.5 69.2744 182.5 69.2744C159.658 45.6808 112.5 35.2744 1 3.27441" stroke="#24789E" stroke-width="1"/>
<path d="M316 797C237.14 292.93 175.153 69.8944 2 101.775" stroke="#24789E" stroke-width="1"/>
<path d="M1.5 11.7741C139.949 -0.228934 240.243 -0.648895 393.5 4.99997" stroke="#24789E" stroke-width="1"/>
</svg>
