<svg width="300" height="300" viewBox="0 0 300 300" fill="none" preserveAspectRatio="xMidYMid slice" xmlns="http://www.w3.org/2000/svg">
<path d="M277.014 299.469L215.48 237.938L215.252 237.71L214.992 237.902C174.301 268.028 118.74 264.494 81.5352 227.289C65.3398 211.094 50.4631 184.066 36.9248 146.159C23.4297 108.373 11.2774 59.8105 0.467773 0.466797C59.8111 11.2762 108.373 23.4288 146.159 36.9238C184.066 50.4621 211.094 65.3395 227.289 81.5352C264.494 118.74 268.028 174.301 237.902 214.992L237.71 215.252L237.938 215.48L299.47 277.013L277.014 299.469Z" fill="#3089AF" stroke="#20799F" stroke-width="0.75"/>
<path d="M220.631 198.107L184.298 161.937L200.079 114.636C201.399 109.947 201.064 107.251 199.213 102.374C198.27 100.487 196.966 98.8044 195.373 97.4217C193.78 96.0391 191.93 94.9837 189.93 94.3159C187.929 93.6481 185.816 93.3808 183.712 93.5295C181.608 93.6781 179.554 94.2397 177.667 95.1822C175.78 96.1246 174.098 97.4296 172.715 99.0224C171.332 100.615 170.277 102.465 169.609 104.465L158.903 136.542L126.655 104.273L134.407 65.4303C135.082 61.3219 134.136 57.1117 131.767 53.6877C129.398 50.2637 125.792 47.8935 121.71 47.0769C117.627 46.2604 113.387 47.0614 109.883 49.3109C106.38 51.5605 103.887 55.0828 102.93 59.135L99.3543 76.9717L63.8522 41.491C62.382 39.9132 60.609 38.6476 58.639 37.7699C56.6691 36.8921 54.5425 36.4202 52.3862 36.3821C50.2299 36.3441 48.088 36.7407 46.0883 37.5484C44.0887 38.3561 42.2721 39.5584 40.7472 41.0833C39.2222 42.6083 38.02 44.4248 37.2123 46.4245C36.4046 48.4242 36.0079 50.5661 36.046 52.7224C36.084 54.8787 36.556 57.0053 37.4337 58.9752C38.3115 60.9452 39.577 62.7181 41.1548 64.1884L76.6355 99.6905L58.7988 103.266C54.7466 104.223 51.2243 106.716 48.9748 110.219C46.7252 113.723 45.9242 117.963 46.7407 122.046C47.5573 126.128 49.9275 129.734 53.3515 132.103C56.7756 134.472 60.9857 135.418 65.0941 134.743L103.937 126.992L136.205 159.239L104.129 169.945C100.141 171.333 96.8602 174.235 94.9962 178.023C93.1321 181.812 92.8352 186.182 94.1696 190.188C95.504 194.194 98.3623 197.514 102.126 199.428C105.89 201.342 110.256 201.697 114.279 200.415L161.601 184.634L198.129 220.794" stroke="#20799F" stroke-width="0.75"/></svg>